<svg width="21" height="21" viewBox="0 0 21 21" fill="none" xmlns="http://www.w3.org/2000/svg">
<path d="M5.49979 12.3673H4.78551C4.40662 12.3673 4.04326 12.2167 3.77535 11.9488C3.50744 11.6809 3.35693 11.3176 3.35693 10.9387V4.51011C3.35693 4.13123 3.50744 3.76787 3.77535 3.49996C4.04326 3.23205 4.40662 3.08154 4.78551 3.08154H11.2141C11.593 3.08154 11.9563 3.23205 12.2242 3.49996C12.4921 3.76787 12.6426 4.13123 12.6426 4.51011V5.2244M9.78551 8.08154H16.2141C17.0031 8.08154 17.6426 8.72114 17.6426 9.51011V15.9387C17.6426 16.7277 17.0031 17.3673 16.2141 17.3673H9.78551C8.99653 17.3673 8.35693 16.7277 8.35693 15.9387V9.51011C8.35693 8.72114 8.99653 8.08154 9.78551 8.08154Z" stroke="#999999" stroke-linecap="round" stroke-linejoin="round"/>
</svg>
