<svg width="104" height="104" viewBox="0 0 104 104" fill="none" xmlns="http://www.w3.org/2000/svg">
<circle cx="51.5" cy="51.5" r="51.5" fill="#F0F0F0"/>
<circle cx="51.5789" cy="51.5789" r="48.0789" stroke="#1E313E" stroke-width="7"/>
<mask id="path-3-inside-1_4931_1500" fill="white">
<path d="M80.7105 54.5789C82.1493 54.5789 83.3259 53.4108 83.2181 51.976C82.8724 47.3762 81.6133 42.8821 79.5047 38.7599C76.9999 33.863 73.368 29.6309 68.908 26.412C64.448 23.193 59.2873 21.0791 53.8506 20.2444C49.2741 19.5417 44.6122 19.7623 40.1376 20.8833C38.7419 21.2329 38.004 22.7175 38.4572 24.0831V24.0831C38.9105 25.4487 40.3833 26.1763 41.7835 25.8452C45.4705 24.9732 49.2991 24.8171 53.0599 25.3946C57.681 26.1041 62.0676 27.9009 65.8586 30.637C69.6497 33.3731 72.7368 36.9704 74.8659 41.1328C76.5986 44.5202 77.6565 48.2031 77.9903 51.977C78.1171 53.4102 79.2716 54.5789 80.7105 54.5789V54.5789Z"/>
</mask>
<path d="M80.7105 54.5789C82.1493 54.5789 83.3259 53.4108 83.2181 51.976C82.8724 47.3762 81.6133 42.8821 79.5047 38.7599C76.9999 33.863 73.368 29.6309 68.908 26.412C64.448 23.193 59.2873 21.0791 53.8506 20.2444C49.2741 19.5417 44.6122 19.7623 40.1376 20.8833C38.7419 21.2329 38.004 22.7175 38.4572 24.0831V24.0831C38.9105 25.4487 40.3833 26.1763 41.7835 25.8452C45.4705 24.9732 49.2991 24.8171 53.0599 25.3946C57.681 26.1041 62.0676 27.9009 65.8586 30.637C69.6497 33.3731 72.7368 36.9704 74.8659 41.1328C76.5986 44.5202 77.6565 48.2031 77.9903 51.977C78.1171 53.4102 79.2716 54.5789 80.7105 54.5789V54.5789Z" stroke="#1E313E" stroke-width="14" mask="url(#path-3-inside-1_4931_1500)"/>
</svg>
